{"glyphs":{"0":{"ha":714,"x_min":0,"x_max":0,"o":"m 661 428 b 356 861 661 675 610 861 b 53 428 119 861 53 669 b 354 -22 53 179 100 -22 b 661 428 611 -22 661 179 z m 522 428 b 354 82 522 242 510 82 b 192 428 203 82 192 232 b 356 757 192 592 207 757 b 522 428 510 757 522 621 z "},"1":{"ha":714,"x_min":0,"x_max":0,"o":"m 499 -1 l 499 843 l 365 843 l 157 676 l 200 572 l 360 704 l 360 -1 z "},"2":{"ha":714,"x_min":0,"x_max":0,"o":"m 647 0 l 647 106 l 242 106 b 631 600 375 211 631 413 b 339 863 631 799 492 863 b 83 807 256 863 204 853 l 126 692 b 336 758 213 736 269 758 b 490 594 429 758 490 718 b 60 114 490 438 190 222 l 100 0 z "},"3":{"ha":714,"x_min":0,"x_max":0,"o":"m 613 228 b 404 444 613 374 501 429 b 592 636 503 457 592 514 b 315 863 592 790 490 863 b 68 811 246 863 129 842 l 110 696 b 313 758 172 726 246 758 b 453 633 394 758 453 729 b 208 493 453 510 358 493 l 208 393 b 474 229 364 393 474 371 b 301 82 474 135 400 82 b 94 128 210 82 135 111 l 53 13 b 297 -22 133 -15 203 -22 b 613 228 449 -22 613 33 z "},"4":{"ha":714,"x_min":0,"x_max":0,"o":"m 683 228 l 683 333 l 550 333 l 550 843 l 407 843 l 32 336 l 78 228 l 414 228 l 414 0 l 550 0 l 550 228 z m 414 333 l 143 333 l 414 701 z "},"5":{"ha":714,"x_min":0,"x_max":0,"o":"m 643 268 b 371 544 643 449 539 544 b 232 518 308 544 271 531 l 232 739 l 608 739 l 608 843 l 96 843 l 96 419 l 190 382 b 363 438 235 407 283 438 b 507 271 446 438 507 389 b 324 82 507 163 460 82 b 113 125 257 82 175 100 l 69 10 b 322 -22 146 -15 238 -22 b 643 268 506 -22 643 81 z "},"6":{"ha":714,"x_min":0,"x_max":0,"o":"m 650 261 b 378 558 650 446 561 558 b 192 438 315 558 231 517 b 422 758 192 610 263 758 b 561 722 475 758 517 743 l 604 838 b 415 863 547 853 467 863 b 63 393 164 863 63 615 b 367 -22 63 188 114 -22 b 650 261 526 -22 650 99 z m 511 261 b 368 82 511 143 449 82 b 204 332 267 82 204 132 b 369 454 224 382 267 454 b 511 261 496 454 511 349 z "},"7":{"ha":714,"x_min":0,"x_max":0,"o":"m 624 749 l 579 842 l 67 842 l 67 738 l 501 738 l 167 0 l 317 0 z "},"8":{"ha":714,"x_min":0,"x_max":0,"o":"m 661 211 b 457 443 661 336 589 406 b 640 639 508 453 640 510 b 360 863 640 796 549 863 b 81 638 179 863 81 782 b 256 444 81 506 215 461 b 51 211 131 411 51 335 b 353 -22 51 26 199 -22 b 661 211 510 -22 661 24 z m 507 635 b 354 490 507 554 418 508 b 215 635 297 508 215 553 b 360 760 215 719 257 760 b 507 635 467 760 507 717 z m 526 214 b 353 81 526 128 463 81 b 188 214 243 81 188 132 b 357 394 188 328 274 368 b 526 214 439 368 526 322 z "},"9":{"ha":714,"x_min":0,"x_max":0,"o":"m 651 447 b 346 863 651 653 603 863 b 63 578 190 863 63 740 b 336 282 63 393 153 282 b 522 403 399 282 483 324 b 290 82 522 231 450 82 b 153 118 238 82 197 97 l 110 3 b 297 -22 167 -12 246 -22 b 651 447 549 -22 651 225 z m 510 508 b 343 386 490 458 446 386 b 203 578 217 386 203 490 b 344 758 203 696 264 758 b 510 508 446 758 510 708 z "},"ð":{"ha":714,"x_min":0,"x_max":0,"o":"m 651 393 b 468 818 651 596 590 733 l 561 882 l 471 935 l 375 868 b 101 926 297 901 207 919 l 146 808 b 263 792 186 804 228 801 l 168 726 l 260 674 l 374 750 b 522 438 474 693 522 588 b 336 558 483 517 399 558 b 63 261 153 558 63 446 b 346 -22 63 99 186 -22 b 651 393 599 -22 651 188 z m 510 332 b 344 82 510 132 446 82 b 203 261 264 82 203 143 b 343 454 203 349 217 454 b 510 332 446 454 490 382 z "},"Ł":{"ha":674,"x_min":0,"x_max":0,"o":"m 664 0 l 664 111 l 272 111 l 272 449 l 442 563 l 381 657 l 272 585 l 272 899 l 133 899 l 133 492 l -19 390 l 42 296 l 133 357 l 133 0 z "},"ł":{"ha":372,"x_min":0,"x_max":0,"o":"m 403 539 l 342 635 l 256 576 l 256 899 l 117 899 l 117 483 l -22 390 l 39 296 l 117 347 l 117 0 l 256 0 l 256 442 z "},"Š":{"ha":794,"x_min":0,"x_max":0,"o":"m 703 233 b 407 531 703 432 540 483 b 233 674 314 564 233 594 b 414 808 233 753 285 808 b 603 760 500 808 551 782 l 647 878 b 415 915 574 903 476 915 b 92 674 250 915 92 847 b 353 407 92 506 228 453 b 561 231 461 367 561 332 b 349 82 561 111 458 82 b 136 135 275 82 203 110 l 92 17 b 347 -25 168 -4 269 -25 b 703 233 533 -25 703 25 z m 568 1124 l 472 1124 l 389 1031 l 310 1124 l 215 1124 l 342 965 l 436 965 z "},"š":{"ha":601,"x_min":0,"x_max":0,"o":"m 539 172 b 311 386 539 321 413 354 b 192 472 246 407 192 425 b 315 556 192 533 240 556 b 485 507 382 556 421 536 l 529 611 b 318 653 442 640 379 653 b 64 468 194 653 64 611 b 268 272 64 340 172 303 b 411 171 344 247 411 228 b 290 79 411 115 385 79 b 99 128 215 79 172 99 l 56 25 b 288 -18 121 -1 214 -18 b 539 172 415 -18 539 33 z m 474 899 l 378 899 l 294 806 l 215 899 l 121 899 l 247 740 l 342 740 z "},"Ý":{"ha":819,"x_min":0,"x_max":0,"o":"m 799 899 l 651 899 l 418 524 l 178 899 l 21 899 l 343 399 l 343 0 l 482 0 l 482 404 z m 526 1124 l 396 1124 l 263 961 l 353 961 z "},"ý":{"ha":706,"x_min":0,"x_max":0,"o":"m 653 635 l 525 635 l 368 169 l 186 635 l 53 635 l 307 26 l 251 -121 b 129 -211 238 -158 206 -190 l 169 -315 b 388 -101 294 -271 350 -206 z m 493 899 l 363 899 l 229 736 l 319 736 z "},"Ž":{"ha":764,"x_min":0,"x_max":0,"o":"m 703 785 l 664 899 l 113 899 l 113 790 l 553 790 l 61 114 l 100 0 l 692 0 l 692 108 l 211 108 z m 558 1118 l 463 1118 l 379 1025 l 300 1118 l 206 1118 l 332 960 l 426 960 z "},"ž":{"ha":593,"x_min":0,"x_max":0,"o":"m 550 532 l 506 635 l 82 635 l 82 539 l 410 539 l 43 103 l 86 0 l 531 0 l 531 96 l 185 96 z m 467 899 l 371 899 l 288 806 l 208 899 l 114 899 l 240 740 l 335 740 z "},"½":{"ha":1089,"x_min":0,"x_max":0,"o":"m 990 0 l 990 67 l 747 67 b 988 329 828 125 988 226 b 801 474 988 439 893 474 b 649 443 751 474 721 468 l 674 372 b 800 408 724 396 760 408 b 896 328 856 408 896 396 b 632 69 896 242 710 129 l 657 0 z m 789 874 l 676 874 l 174 0 l 285 0 z m 293 435 l 293 899 l 210 899 l 86 807 l 111 743 l 203 815 l 203 435 z "},"¼":{"ha":1089,"x_min":0,"x_max":0,"o":"m 944 122 l 944 188 l 871 188 l 871 464 l 776 464 l 551 188 l 581 122 l 781 122 l 781 0 l 871 0 l 871 122 z m 793 874 l 682 874 l 178 0 l 288 0 z m 297 435 l 288 899 l 214 899 l 89 807 l 115 743 l 206 815 l 206 435 z m 781 188 l 626 188 l 781 378 z "},"¹":{"ha":485,"x_min":0,"x_max":0,"o":"m 317 435 l 317 899 l 233 899 l 110 807 l 135 743 l 226 815 l 226 435 z "},"¾":{"ha":1089,"x_min":0,"x_max":0,"o":"m 974 122 l 974 188 l 900 188 l 900 464 l 806 464 l 581 188 l 610 122 l 810 122 l 810 0 l 900 0 l 900 122 z m 836 874 l 724 874 l 221 0 l 332 0 z m 413 565 b 288 685 413 646 346 676 b 400 790 347 692 400 724 b 225 915 400 875 331 915 b 76 888 183 915 113 904 l 101 815 b 222 850 139 832 182 850 b 310 789 271 850 310 842 b 160 715 310 725 250 715 l 160 653 b 322 567 253 653 322 642 b 217 493 322 517 275 493 b 92 518 161 493 115 508 l 67 447 b 214 429 115 432 157 429 b 413 565 304 429 413 458 z m 810 188 l 656 188 l 810 378 z "},"³":{"ha":485,"x_min":0,"x_max":0,"o":"m 415 565 b 289 685 415 646 347 676 b 403 790 349 692 403 724 b 226 915 403 875 332 915 b 78 888 185 915 114 904 l 104 815 b 225 850 142 832 185 850 b 311 789 274 850 311 842 b 163 715 311 725 253 715 l 163 653 b 324 567 256 653 324 642 b 218 493 324 517 276 493 b 94 518 163 493 118 508 l 68 447 b 215 429 117 432 158 429 b 415 565 306 429 415 458 z "},"²":{"ha":485,"x_min":0,"x_max":0,"o":"m 421 442 l 421 507 l 176 507 b 418 769 257 565 418 667 b 232 915 418 879 324 915 b 78 885 182 915 150 910 l 103 814 b 231 850 153 838 190 850 b 326 768 286 850 326 836 b 63 508 326 682 140 568 l 88 442 z "},"¦":{"ha":357,"x_min":0,"x_max":0,"o":"m 233 499 l 233 824 l 124 824 l 124 499 z m 233 -108 l 233 217 l 124 217 l 124 -108 z "},"−":{"ha":714,"x_min":0,"x_max":0,"o":"m 658 260 l 658 350 l 56 350 l 56 260 z "},"×":{"ha":714,"x_min":0,"x_max":0,"o":"m 651 117 l 436 332 l 651 547 l 574 625 l 358 410 l 143 625 l 65 547 l 281 332 l 65 117 l 143 39 l 358 254 l 574 39 z "}," ":{"ha":357,"x_min":0,"x_max":0,"o":""},"!":{"ha":357,"x_min":0,"x_max":0,"o":"m 240 244 l 240 899 l 117 899 l 117 244 z m 249 0 l 249 135 l 110 135 l 110 0 z "},"\"":{"ha":528,"x_min":0,"x_max":0,"o":"m 422 899 l 307 899 l 318 597 l 411 597 z m 222 899 l 107 899 l 118 597 l 211 597 z "},"#":{"ha":714,"x_min":0,"x_max":0,"o":"m 693 544 l 693 636 l 561 636 l 607 899 l 499 899 l 453 636 l 321 636 l 367 899 l 258 899 l 213 636 l 74 636 l 74 544 l 196 544 l 160 343 l 19 343 l 19 251 l 144 251 l 100 0 l 208 0 l 251 251 l 385 251 l 340 0 l 449 0 l 493 251 l 639 251 l 639 343 l 508 343 l 544 544 z m 436 544 l 401 343 l 268 343 l 303 544 z "},"$":{"ha":714,"x_min":0,"x_max":0,"o":"m 640 233 b 401 513 640 410 518 468 l 401 806 b 557 760 468 800 514 779 l 601 878 b 401 914 540 899 463 910 l 401 1036 l 300 1036 l 300 911 b 57 674 167 894 57 824 b 300 411 57 507 183 456 l 300 82 b 106 135 228 83 171 110 l 61 17 b 300 -25 140 -4 218 -24 l 300 -136 l 401 -136 l 401 -19 b 640 233 536 -1 640 65 z m 301 553 b 194 674 242 579 194 611 b 301 801 194 739 228 785 z m 503 231 b 400 96 503 151 456 113 l 400 367 b 503 231 457 338 503 300 z "},"%":{"ha":1089,"x_min":0,"x_max":0,"o":"m 1022 231 b 833 469 1022 367 986 469 b 646 231 692 469 646 364 b 832 -17 646 94 679 -17 b 1022 231 986 -17 1022 94 z m 850 874 l 738 874 l 235 0 l 346 0 z m 443 676 b 256 914 443 813 408 914 b 68 676 114 914 68 810 b 254 428 68 540 101 428 b 443 676 408 428 443 540 z m 932 231 b 832 49 932 128 919 49 b 738 231 746 49 738 125 b 833 404 738 318 749 404 b 932 231 921 404 932 335 z m 354 676 b 254 494 354 574 342 494 b 158 676 168 494 158 571 b 256 849 158 764 171 849 b 354 676 343 849 354 781 z "},"&":{"ha":714,"x_min":0,"x_max":0,"o":"m 650 0 b 631 194 647 38 631 125 l 631 404 l 375 404 l 375 315 l 508 315 l 508 175 b 357 75 472 121 418 75 b 192 249 232 75 192 169 b 342 469 192 368 243 428 b 567 697 457 518 567 586 b 329 919 567 849 478 919 b 92 688 156 919 92 814 b 221 504 92 586 178 538 b 64 246 96 442 64 340 b 346 -21 64 51 200 -21 b 517 68 411 -21 483 19 l 536 0 z m 442 699 b 311 554 442 619 374 581 b 218 689 281 582 218 621 b 326 824 218 767 246 824 b 442 699 418 824 442 769 z "},"'":{"ha":357,"x_min":0,"x_max":0,"o":"m 236 899 l 121 899 l 132 597 l 225 597 z "},"(":{"ha":410,"x_min":0,"x_max":0,"o":"m 338 -178 b 204 353 225 28 204 160 b 331 899 204 588 232 717 l 218 899 b 78 353 121 724 78 607 b 225 -178 78 144 107 26 z "},")":{"ha":410,"x_min":0,"x_max":0,"o":"m 335 353 b 194 899 335 607 292 724 l 81 899 b 207 353 179 717 207 588 b 74 -178 207 160 186 28 l 188 -178 b 335 353 306 26 335 144 z "},"*":{"ha":569,"x_min":0,"x_max":0,"o":"m 554 672 l 529 758 l 331 685 l 321 690 l 332 901 l 244 901 l 254 694 l 243 686 l 44 761 l 17 674 l 224 622 l 226 613 l 93 442 l 165 389 l 283 567 l 294 567 l 410 389 l 482 440 l 349 613 l 350 622 z "},"+":{"ha":714,"x_min":0,"x_max":0,"o":"m 653 253 l 653 351 l 413 351 l 413 594 l 301 594 l 301 351 l 61 351 l 61 253 l 301 253 l 301 0 l 413 0 l 413 253 z "},",":{"ha":357,"x_min":0,"x_max":0,"o":"m 247 104 l 110 104 l 39 -143 l 135 -143 z "},"-":{"ha":469,"x_min":0,"x_max":0,"o":"m 431 272 l 431 378 l 39 378 l 39 272 z "},".":{"ha":357,"x_min":0,"x_max":0,"o":"m 247 0 l 247 133 l 110 133 l 110 0 z "},"/":{"ha":385,"x_min":0,"x_max":0,"o":"m 394 913 l 286 913 l -10 -15 l 100 -15 z "},":":{"ha":357,"x_min":0,"x_max":0,"o":"m 247 494 l 247 628 l 110 628 l 110 494 z m 247 0 l 247 133 l 110 133 l 110 0 z "},";":{"ha":357,"x_min":0,"x_max":0,"o":"m 246 494 l 246 628 l 108 628 l 108 494 z m 247 104 l 108 104 l 39 -143 l 135 -143 z "},"<":{"ha":714,"x_min":0,"x_max":0,"o":"m 658 40 l 658 164 l 181 328 l 658 494 l 658 618 l 56 397 l 56 258 z "},"=":{"ha":714,"x_min":0,"x_max":0,"o":"m 658 356 l 658 456 l 56 456 l 56 356 z m 658 115 l 658 215 l 56 215 l 56 115 z "},">":{"ha":714,"x_min":0,"x_max":0,"o":"m 658 261 l 658 399 l 56 618 l 56 494 l 533 331 l 56 164 l 56 40 z "},"?":{"ha":604,"x_min":0,"x_max":0,"o":"m 561 690 b 297 913 561 883 419 913 b 71 871 231 913 131 892 l 96 757 b 297 806 146 782 246 806 b 428 690 393 806 428 772 b 210 363 428 567 210 551 l 210 236 l 335 236 l 335 356 b 561 690 335 493 561 525 z m 342 0 l 342 135 l 203 135 l 203 0 z "},"@":{"ha":1208,"x_min":0,"x_max":0,"o":"m 1096 529 b 647 915 1096 810 844 915 b 113 444 350 915 113 763 b 646 -25 113 133 332 -25 b 988 15 749 -25 868 -17 l 944 118 b 650 71 831 85 751 71 b 238 444 483 71 238 139 b 647 819 238 744 479 819 b 971 528 804 819 971 751 b 668 267 971 314 842 267 b 479 447 592 267 479 296 b 628 615 479 579 556 615 b 660 608 640 615 653 613 l 660 342 l 846 361 l 810 454 l 772 451 l 772 692 b 636 711 750 699 693 711 b 356 446 446 711 356 590 b 665 175 356 269 474 175 b 1096 529 892 175 1096 264 z "},"A":{"ha":913,"x_min":0,"x_max":0,"o":"m 869 0 l 531 899 l 408 899 l 43 0 l 189 0 l 283 254 l 628 254 l 717 0 z m 593 358 l 322 358 l 463 738 z "},"B":{"ha":838,"x_min":0,"x_max":0,"o":"m 760 258 b 575 471 760 383 686 451 b 718 657 657 497 718 563 b 415 899 718 850 588 899 l 133 899 l 133 0 l 461 0 b 760 258 622 0 760 53 z m 576 656 b 435 515 576 558 514 515 l 272 515 l 272 792 l 415 792 b 576 656 532 792 576 747 z m 617 258 b 453 107 617 135 546 107 l 272 107 l 272 410 l 438 410 b 617 258 536 410 617 379 z "},"C":{"ha":776,"x_min":0,"x_max":0,"o":"m 724 17 l 679 135 b 478 82 607 106 550 82 b 228 450 289 82 228 229 b 486 808 228 658 289 808 b 669 763 553 808 611 788 l 714 881 b 486 915 646 903 564 915 b 85 449 181 915 85 699 b 479 -25 85 171 190 -25 b 724 17 574 -25 644 -11 z "},"D":{"ha":904,"x_min":0,"x_max":0,"o":"m 819 453 b 390 899 819 779 690 899 l 133 899 l 133 0 l 390 0 b 819 453 690 0 819 125 z m 676 451 b 403 107 676 190 578 107 l 272 107 l 272 792 l 390 792 b 676 451 575 792 676 733 z "},"E":{"ha":776,"x_min":0,"x_max":0,"o":"m 661 0 l 661 107 l 272 107 l 272 411 l 619 411 l 619 518 l 272 518 l 272 792 l 649 792 l 649 899 l 133 899 l 133 0 z "},"F":{"ha":724,"x_min":0,"x_max":0,"o":"m 649 790 l 649 899 l 133 899 l 133 0 l 272 0 l 272 407 l 632 407 l 632 513 l 272 513 l 272 790 z "},"G":{"ha":854,"x_min":0,"x_max":0,"o":"m 769 54 l 769 463 l 447 463 l 447 356 l 646 356 l 646 126 b 485 82 599 100 550 82 b 228 450 281 82 228 233 b 494 808 228 711 325 808 b 665 763 556 808 611 786 l 710 881 b 493 915 646 897 556 915 b 85 450 201 915 85 726 b 481 -25 85 207 165 -25 b 769 54 604 -25 676 3 z "},"H":{"ha":931,"x_min":0,"x_max":0,"o":"m 797 0 l 797 899 l 658 899 l 658 518 l 272 518 l 272 899 l 133 899 l 133 0 l 272 0 l 272 410 l 658 410 l 658 0 z "},"I":{"ha":372,"x_min":0,"x_max":0,"o":"m 256 0 l 256 899 l 117 899 l 117 0 z "},"J":{"ha":585,"x_min":0,"x_max":0,"o":"m 451 283 l 451 899 l 313 899 l 313 269 b 22 0 313 33 147 25 l 58 -117 b 451 283 228 -72 451 -17 z "},"K":{"ha":867,"x_min":0,"x_max":0,"o":"m 846 0 l 400 475 l 792 899 l 636 899 l 272 504 l 272 899 l 133 899 l 133 0 l 272 0 l 272 422 l 665 0 z "},"L":{"ha":674,"x_min":0,"x_max":0,"o":"m 664 0 l 664 111 l 272 111 l 272 899 l 133 899 l 133 0 z "},"M":{"ha":1224,"x_min":0,"x_max":0,"o":"m 1090 0 l 1090 899 l 881 899 l 615 189 l 354 899 l 133 899 l 133 0 l 264 0 l 264 751 l 544 0 l 676 0 l 956 751 l 956 0 z "},"N":{"ha":974,"x_min":0,"x_max":0,"o":"m 840 0 l 840 899 l 704 899 l 704 164 l 336 899 l 133 899 l 133 0 l 264 0 l 264 735 l 635 0 z "},"O":{"ha":976,"x_min":0,"x_max":0,"o":"m 892 446 b 492 915 892 719 792 915 b 85 446 192 915 85 711 b 490 -25 85 178 179 -25 b 892 446 789 -25 892 179 z m 749 446 b 490 82 749 219 685 82 b 228 446 300 82 228 203 b 490 808 228 683 301 808 b 749 446 678 808 749 685 z "},"P":{"ha":803,"x_min":0,"x_max":0,"o":"m 731 636 b 421 899 731 833 604 899 l 133 899 l 133 0 l 272 0 l 272 365 l 436 365 b 731 636 617 365 731 442 z m 589 636 b 425 472 589 508 524 472 l 272 472 l 272 792 l 418 792 b 589 636 514 792 589 769 z "},"Q":{"ha":976,"x_min":0,"x_max":0,"o":"m 892 446 b 492 915 892 719 792 915 b 85 446 189 915 85 711 b 490 -25 85 178 179 -25 b 892 446 789 -25 892 179 z m 797 -85 l 493 -57 l 444 -136 l 749 -182 z m 749 446 b 490 82 749 219 685 82 b 228 446 300 82 228 203 b 490 808 228 683 301 808 b 749 446 678 808 749 685 z "},"R":{"ha":853,"x_min":0,"x_max":0,"o":"m 792 0 l 499 392 b 738 649 679 410 738 522 b 442 899 738 849 585 899 l 133 899 l 133 0 l 272 0 l 272 388 l 338 388 l 624 0 z m 596 649 b 450 494 596 561 556 494 l 272 494 l 272 792 l 449 792 b 596 649 546 792 596 739 z "},"S":{"ha":794,"x_min":0,"x_max":0,"o":"m 703 233 b 407 531 703 432 540 483 b 233 674 314 564 233 594 b 414 808 233 753 285 808 b 603 760 500 808 551 782 l 647 878 b 415 915 574 903 476 915 b 92 674 250 915 92 847 b 353 407 92 506 228 453 b 561 231 461 367 561 332 b 349 82 561 111 458 82 b 136 135 275 82 203 110 l 92 17 b 347 -25 168 -4 269 -25 b 703 233 533 -25 703 25 z "},"T":{"ha":718,"x_min":0,"x_max":0,"o":"m 685 790 l 685 899 l 33 899 l 33 790 l 290 790 l 290 0 l 428 0 l 428 790 z "},"U":{"ha":974,"x_min":0,"x_max":0,"o":"m 840 329 l 840 899 l 701 899 l 701 346 b 496 82 701 150 628 82 b 272 346 357 82 272 131 l 272 899 l 133 899 l 133 332 b 496 -25 133 92 244 -25 b 840 329 722 -25 840 90 z "},"V":{"ha":872,"x_min":0,"x_max":0,"o":"m 832 899 l 686 899 l 446 176 l 193 899 l 40 899 l 379 0 l 506 0 z "},"W":{"ha":1282,"x_min":0,"x_max":0,"o":"m 1233 899 l 1100 899 l 918 172 l 736 861 l 569 861 l 365 174 l 194 899 l 49 899 l 264 0 l 432 0 l 643 671 l 831 0 l 999 0 z "},"X":{"ha":840,"x_min":0,"x_max":0,"o":"m 789 0 l 494 472 l 771 899 l 622 899 l 425 585 l 239 899 l 79 899 l 343 464 l 43 0 l 192 0 l 417 356 l 624 0 z "},"Y":{"ha":819,"x_min":0,"x_max":0,"o":"m 799 899 l 651 899 l 418 524 l 178 899 l 21 899 l 343 399 l 343 0 l 482 0 l 482 404 z "},"Z":{"ha":764,"x_min":0,"x_max":0,"o":"m 703 785 l 664 899 l 113 899 l 113 790 l 553 790 l 61 114 l 100 0 l 692 0 l 692 108 l 211 108 z "},"[":{"ha":401,"x_min":0,"x_max":0,"o":"m 336 -176 l 336 -82 l 226 -82 l 226 849 l 336 849 l 336 939 l 115 939 l 115 -176 z "},"\\":{"ha":385,"x_min":0,"x_max":0,"o":"m 394 -15 l 99 913 l -10 913 l 285 -15 z "},"]":{"ha":401,"x_min":0,"x_max":0,"o":"m 294 -175 l 294 940 l 74 940 l 74 850 l 183 850 l 183 -82 l 74 -82 l 74 -175 z "},"^":{"ha":714,"x_min":0,"x_max":0,"o":"m 668 374 l 411 899 l 299 899 l 47 374 l 164 374 l 356 783 l 547 374 z "},"_":{"ha":694,"x_min":0,"x_max":0,"o":"m 696 -151 l 696 -57 l -1 -57 l -1 -151 z "},"`":{"ha":317,"x_min":0,"x_max":0,"o":"m 290 736 l 157 899 l 26 899 l 199 736 z "},"a":{"ha":696,"x_min":0,"x_max":0,"o":"m 611 0 b 589 194 603 74 589 144 l 589 449 b 360 651 589 588 494 651 b 89 603 261 651 168 632 l 132 500 b 356 556 193 529 268 556 b 464 432 444 556 464 499 l 464 392 l 407 392 b 63 167 136 392 63 296 b 301 -17 63 43 157 -17 b 474 69 376 -17 440 31 b 496 0 475 63 496 6 z m 465 154 b 321 79 439 111 386 79 b 193 172 246 79 193 110 b 426 306 193 263 251 306 l 465 306 z "},"b":{"ha":710,"x_min":0,"x_max":0,"o":"m 647 321 b 389 651 647 497 578 651 b 218 546 308 651 251 594 l 218 913 l 94 913 l 94 194 b 79 0 94 114 89 76 l 192 0 l 214 69 b 371 -17 239 32 293 -17 b 647 321 560 -17 647 139 z m 519 318 b 354 79 519 150 456 79 b 215 172 294 79 242 114 l 215 426 b 372 556 242 476 286 556 b 519 318 456 556 519 500 z "},"c":{"ha":626,"x_min":0,"x_max":0,"o":"m 576 26 l 533 129 b 361 79 479 101 404 79 b 190 313 244 79 190 164 b 363 556 190 475 239 556 b 529 506 410 556 482 529 l 572 608 b 364 651 526 626 421 651 b 63 313 156 651 63 518 b 360 -17 63 118 158 -17 b 576 26 408 -17 528 3 z "},"d":{"ha":710,"x_min":0,"x_max":0,"o":"m 631 0 b 615 194 621 76 615 114 l 615 913 l 492 913 l 492 546 b 324 651 458 594 406 651 b 63 321 147 651 63 499 b 339 -17 63 139 138 -17 b 496 69 410 -17 467 25 l 518 0 z m 494 172 b 356 79 460 117 415 79 b 190 318 243 79 190 150 b 339 556 190 497 257 556 b 494 426 424 556 468 479 z "},"e":{"ha":696,"x_min":0,"x_max":0,"o":"m 631 269 b 344 651 631 510 569 651 b 63 311 122 651 63 458 b 351 -17 63 135 153 -17 b 596 33 435 -17 521 -1 l 556 131 b 363 76 489 97 426 76 b 194 269 253 76 203 151 z m 510 363 l 193 363 b 346 556 200 501 271 556 b 510 363 447 556 506 499 z "},"f":{"ha":429,"x_min":0,"x_max":0,"o":"m 429 833 l 397 938 b 114 678 286 929 114 857 l 114 635 l 18 635 l 18 539 l 114 539 l 114 0 l 238 0 l 238 539 l 382 539 l 382 635 l 238 635 l 238 688 b 429 833 238 772 300 819 z "},"g":{"ha":724,"x_min":0,"x_max":0,"o":"m 681 653 b 463 638 614 650 514 642 b 356 651 432 646 403 651 b 85 414 124 651 85 488 b 153 246 85 321 135 268 b 85 139 119 218 85 185 b 171 25 85 88 119 47 b 53 -100 131 11 53 -25 b 367 -278 53 -207 129 -278 b 676 -96 524 -278 676 -229 b 381 82 676 3 622 63 b 190 144 221 94 190 111 b 222 199 190 169 206 183 b 358 172 251 183 329 172 b 632 414 569 172 632 301 b 563 565 632 481 592 540 l 646 565 z m 503 417 b 360 265 503 342 468 265 b 214 411 267 265 214 317 b 358 557 214 507 271 557 b 503 417 457 557 503 506 z m 547 -96 b 367 -187 547 -156 500 -187 b 182 -96 256 -187 182 -151 b 256 -11 182 -64 208 -26 b 547 -96 485 -21 547 -54 z "},"h":{"ha":707,"x_min":0,"x_max":0,"o":"m 613 0 l 613 404 b 389 653 613 542 567 653 b 218 546 300 653 242 583 l 218 913 l 94 913 l 94 0 l 218 0 l 218 429 b 369 556 243 485 293 556 b 489 399 475 556 489 485 l 489 0 z "},"i":{"ha":317,"x_min":0,"x_max":0,"o":"m 225 776 l 225 899 l 92 899 l 92 776 z m 221 0 l 221 635 l 96 635 l 96 0 z "},"j":{"ha":311,"x_min":0,"x_max":0,"o":"m 219 776 l 219 899 l 85 899 l 85 776 z m 214 8 l 214 635 l 90 635 l 90 -4 b -39 -143 90 -86 58 -122 l 3 -247 b 214 8 129 -207 214 -136 z "},"k":{"ha":644,"x_min":0,"x_max":0,"o":"m 625 0 l 333 360 l 592 635 l 457 635 l 218 379 l 218 913 l 94 913 l 94 0 l 218 0 l 218 325 l 481 0 z "},"l":{"ha":313,"x_min":0,"x_max":0,"o":"m 218 0 l 218 913 l 94 913 l 94 0 z "},"m":{"ha":1097,"x_min":0,"x_max":0,"o":"m 1003 0 l 1003 406 b 781 653 1003 575 928 653 b 586 538 689 653 622 596 b 386 653 543 611 497 653 b 215 544 306 653 240 581 l 192 635 l 79 635 b 94 489 83 588 94 542 l 94 0 l 218 0 l 218 431 b 365 556 238 478 294 556 b 483 403 446 556 483 514 l 483 0 l 607 0 l 607 422 b 764 556 631 486 686 556 b 879 403 854 556 879 497 l 879 0 z "},"n":{"ha":707,"x_min":0,"x_max":0,"o":"m 613 0 l 613 400 b 388 653 613 546 565 653 b 214 546 293 653 239 575 l 192 635 l 79 635 b 94 500 83 588 94 553 l 94 0 l 218 0 l 218 429 b 369 556 244 488 296 556 b 489 401 478 556 489 482 l 489 0 z "},"o":{"ha":718,"x_min":0,"x_max":0,"o":"m 656 321 b 360 653 656 504 581 653 b 63 321 140 653 63 496 b 360 -18 63 138 139 -18 b 656 321 579 -18 656 138 z m 528 321 b 360 79 528 167 481 79 b 190 321 235 79 190 174 b 360 556 190 476 243 556 b 528 321 483 556 528 476 z "},"p":{"ha":710,"x_min":0,"x_max":0,"o":"m 647 314 b 381 653 647 494 578 653 b 217 546 301 653 246 589 l 192 635 l 79 635 b 94 443 89 563 94 518 l 94 -250 l 218 -250 l 218 68 b 389 -18 253 19 318 -18 b 647 314 568 -18 647 138 z m 519 317 b 371 79 519 138 454 79 b 217 172 290 79 249 121 l 217 431 b 356 556 242 492 290 556 b 519 317 468 556 519 482 z "},"q":{"ha":710,"x_min":0,"x_max":0,"o":"m 631 635 l 518 635 l 493 546 b 329 653 464 589 408 653 b 63 314 142 653 63 494 b 322 -18 63 138 133 -18 b 492 68 393 -18 457 19 l 492 -250 l 615 -250 l 615 443 b 631 635 615 518 621 563 z m 494 172 b 339 79 463 121 419 79 b 190 317 256 79 190 138 b 353 556 190 482 244 556 b 494 431 418 556 469 492 z "},"r":{"ha":500,"x_min":0,"x_max":0,"o":"m 482 621 b 364 653 447 642 414 653 b 214 524 292 653 236 567 l 192 635 l 79 635 b 94 493 83 603 94 556 l 94 0 l 218 0 l 218 403 b 342 556 235 442 264 556 b 438 517 385 556 414 532 z "},"s":{"ha":601,"x_min":0,"x_max":0,"o":"m 539 172 b 311 386 539 321 413 354 b 192 472 246 407 192 425 b 315 556 192 533 240 556 b 485 507 382 556 421 536 l 529 611 b 318 653 442 640 379 653 b 64 468 194 653 64 611 b 268 272 64 340 172 303 b 411 171 344 247 411 228 b 290 79 411 115 385 79 b 99 128 215 79 172 99 l 56 25 b 288 -18 121 -1 214 -18 b 539 172 415 -18 539 33 z "},"t":{"ha":433,"x_min":0,"x_max":0,"o":"m 417 0 b 246 154 313 21 246 68 l 246 539 l 393 539 l 393 636 l 246 636 l 246 801 l 121 801 l 121 636 l 18 636 l 18 539 l 121 539 l 121 157 b 374 -112 121 15 228 -76 z "},"u":{"ha":697,"x_min":0,"x_max":0,"o":"m 618 0 b 603 135 614 47 603 82 l 603 635 l 479 635 l 479 206 b 333 79 453 147 407 79 b 218 233 229 79 218 154 l 218 635 l 94 635 l 94 235 b 315 -18 94 89 146 -18 b 483 89 410 -18 458 60 l 506 0 z "},"v":{"ha":713,"x_min":0,"x_max":0,"o":"m 660 635 l 532 635 l 361 151 l 186 635 l 53 635 l 299 0 l 415 0 z "},"w":{"ha":1047,"x_min":0,"x_max":0,"o":"m 1000 635 l 875 635 l 728 154 l 592 576 l 472 576 l 328 153 l 179 635 l 47 635 l 251 0 l 381 0 l 526 418 l 661 0 l 788 0 z "},"x":{"ha":656,"x_min":0,"x_max":0,"o":"m 622 0 l 396 331 l 611 635 l 481 635 l 333 414 l 192 635 l 49 635 l 263 321 l 33 0 l 165 0 l 326 235 l 479 0 z "},"y":{"ha":706,"x_min":0,"x_max":0,"o":"m 653 635 l 525 635 l 368 169 l 186 635 l 53 635 l 307 26 l 251 -121 b 129 -211 238 -158 206 -190 l 169 -315 b 388 -101 294 -271 350 -206 z "},"z":{"ha":593,"x_min":0,"x_max":0,"o":"m 550 532 l 506 635 l 82 635 l 82 539 l 410 539 l 43 103 l 86 0 l 531 0 l 531 96 l 185 96 z "},"{":{"ha":519,"x_min":0,"x_max":0,"o":"m 429 -164 l 429 -65 b 178 367 189 -65 372 296 b 429 800 368 453 186 800 l 429 899 b 67 418 33 886 278 425 l 67 319 b 429 -164 283 304 39 -154 z "},"|":{"ha":357,"x_min":0,"x_max":0,"o":"m 232 -231 l 232 975 l 125 975 l 125 -231 z "},"}":{"ha":519,"x_min":0,"x_max":0,"o":"m 453 319 l 453 418 b 89 899 242 425 485 886 l 89 800 b 342 367 332 800 151 453 b 89 -65 147 296 329 -65 l 89 -164 b 453 319 479 -154 236 304 z "},"~":{"ha":714,"x_min":0,"x_max":0,"o":"m 675 364 l 575 418 b 479 315 575 342 540 315 b 213 431 426 315 336 431 b 38 271 104 431 38 364 l 139 218 b 232 322 139 296 171 322 b 497 204 289 322 379 204 b 675 364 606 204 675 272 z "},"Ä":{"ha":913,"x_min":0,"x_max":0,"o":"m 869 0 l 531 899 l 408 899 l 43 0 l 189 0 l 283 254 l 628 254 l 717 0 z m 593 358 l 322 358 l 463 738 z m 632 949 l 632 1064 l 515 1064 l 515 949 z m 417 949 l 417 1064 l 300 1064 l 300 949 z "},"Å":{"ha":913,"x_min":0,"x_max":0,"o":"m 869 0 l 531 899 l 408 899 l 43 0 l 189 0 l 283 254 l 628 254 l 717 0 z m 593 358 l 322 358 l 463 738 z m 589 1046 b 474 1160 589 1111 539 1160 b 358 1046 410 1160 358 1110 b 474 932 358 983 411 932 b 589 1046 538 932 589 982 z m 535 1047 b 474 985 535 1014 515 985 b 411 1047 436 985 411 1018 b 474 1110 411 1079 436 1110 b 535 1047 513 1110 535 1082 z "},"Ç":{"ha":776,"x_min":0,"x_max":0,"o":"m 724 17 l 679 135 b 478 82 607 106 550 82 b 228 450 289 82 228 229 b 486 808 228 658 289 808 b 669 763 553 808 611 788 l 714 881 b 486 917 646 903 564 917 b 85 449 181 917 85 699 b 394 -18 85 200 169 17 l 375 -89 b 486 -137 474 -89 486 -106 b 419 -185 486 -175 453 -185 b 319 -175 392 -185 364 -181 l 292 -265 b 426 -276 332 -271 386 -276 b 592 -135 514 -276 592 -228 b 490 -37 592 -93 558 -37 l 493 -26 b 724 17 581 -25 649 -10 z "},"É":{"ha":776,"x_min":0,"x_max":0,"o":"m 661 0 l 661 107 l 272 107 l 272 411 l 619 411 l 619 518 l 272 518 l 272 792 l 649 792 l 649 899 l 133 899 l 133 0 z m 519 1103 l 389 1103 l 256 940 l 346 940 z "},"Ñ":{"ha":974,"x_min":0,"x_max":0,"o":"m 840 0 l 840 899 l 704 899 l 704 164 l 336 899 l 133 899 l 133 0 l 264 0 l 264 735 l 635 0 z m 685 1049 l 613 1081 b 546 1021 606 1057 582 1021 b 414 1078 504 1021 468 1078 b 274 981 343 1078 307 1056 l 344 947 b 413 1004 353 975 374 1004 b 549 946 456 1004 486 946 b 685 1049 613 946 665 988 z "},"Ö":{"ha":976,"x_min":0,"x_max":0,"o":"m 892 446 b 492 915 892 719 792 915 b 85 446 192 915 85 711 b 490 -25 85 178 179 -25 b 892 446 789 -25 892 179 z m 749 446 b 490 82 749 219 685 82 b 228 446 300 82 228 203 b 490 808 228 683 301 808 b 749 446 678 808 749 685 z m 656 947 l 656 1063 l 539 1063 l 539 947 z m 440 947 l 440 1063 l 324 1063 l 324 947 z "},"Ü":{"ha":974,"x_min":0,"x_max":0,"o":"m 840 329 l 840 899 l 701 899 l 701 346 b 496 82 701 150 628 82 b 272 346 357 82 272 131 l 272 899 l 133 899 l 133 332 b 496 -25 133 92 244 -25 b 840 329 722 -25 840 90 z m 660 949 l 660 1064 l 543 1064 l 543 949 z m 444 949 l 444 1064 l 328 1064 l 328 949 z "},"á":{"ha":696,"x_min":0,"x_max":0,"o":"m 611 0 b 589 194 603 74 589 144 l 589 449 b 360 651 589 588 494 651 b 89 603 261 651 168 632 l 132 500 b 356 556 193 529 268 556 b 464 432 444 556 464 499 l 464 392 l 407 392 b 63 167 136 392 63 296 b 301 -17 63 43 157 -17 b 474 69 376 -17 440 31 b 496 0 475 63 496 6 z m 465 154 b 321 79 439 111 386 79 b 193 172 246 79 193 110 b 426 306 193 263 251 306 l 465 306 z m 489 899 l 358 899 l 225 736 l 315 736 z "},"à":{"ha":696,"x_min":0,"x_max":0,"o":"m 611 0 b 589 194 603 74 589 144 l 589 449 b 360 651 589 588 494 651 b 89 603 261 651 168 632 l 132 500 b 356 556 193 529 268 556 b 464 432 444 556 464 499 l 464 392 l 407 392 b 63 167 136 392 63 296 b 301 -17 63 43 157 -17 b 474 69 376 -17 440 31 b 496 0 475 63 496 6 z m 465 154 b 321 79 439 111 386 79 b 193 172 246 79 193 110 b 426 306 193 263 251 306 l 465 306 z m 417 736 l 283 899 l 153 899 l 325 736 z "},"â":{"ha":696,"x_min":0,"x_max":0,"o":"m 611 0 b 589 194 603 74 589 144 l 589 449 b 360 651 589 588 494 651 b 89 603 261 651 168 632 l 132 500 b 356 556 193 529 268 556 b 464 432 444 556 464 499 l 464 392 l 407 392 b 63 167 136 392 63 296 b 301 -17 63 43 157 -17 b 474 69 376 -17 440 31 b 496 0 475 63 496 6 z m 465 154 b 321 79 439 111 386 79 b 193 172 246 79 193 110 b 426 306 193 263 251 306 l 465 306 z m 501 740 l 374 899 l 279 899 l 149 740 l 243 740 l 326 835 l 406 740 z "},"ä":{"ha":696,"x_min":0,"x_max":0,"o":"m 611 0 b 589 194 603 74 589 144 l 589 449 b 360 651 589 588 494 651 b 89 603 261 651 168 632 l 132 500 b 356 556 193 529 268 556 b 464 432 444 556 464 499 l 464 392 l 407 392 b 63 167 136 392 63 296 b 301 -17 63 43 157 -17 b 474 69 376 -17 440 31 b 496 0 475 63 496 6 z m 465 154 b 321 79 439 111 386 79 b 193 172 246 79 193 110 b 426 306 193 263 251 306 l 465 306 z m 510 743 l 510 867 l 392 867 l 392 743 z m 292 743 l 292 867 l 175 867 l 175 743 z "},"ã":{"ha":696,"x_min":0,"x_max":0,"o":"m 611 0 b 589 194 603 74 589 144 l 589 449 b 360 651 589 588 494 651 b 89 603 261 651 168 632 l 132 500 b 356 556 193 529 268 556 b 464 432 444 556 464 499 l 464 392 l 407 392 b 63 167 136 392 63 296 b 301 -17 63 43 157 -17 b 474 69 376 -17 440 31 b 496 0 475 63 496 6 z m 465 154 b 321 79 439 111 386 79 b 193 172 246 79 193 110 b 426 306 193 263 251 306 l 465 306 z m 533 833 l 465 865 b 394 806 454 842 431 806 b 263 863 353 806 317 863 b 122 765 192 863 156 840 l 193 732 b 261 789 201 760 222 789 b 397 731 304 789 335 731 b 533 833 461 731 514 772 z "},"å":{"ha":696,"x_min":0,"x_max":0,"o":"m 611 0 b 589 194 603 74 589 144 l 589 449 b 360 651 589 588 494 651 b 89 603 261 651 168 632 l 132 500 b 356 556 193 529 268 556 b 464 432 444 556 464 499 l 464 392 l 407 392 b 63 167 136 392 63 296 b 301 -17 63 43 157 -17 b 474 69 376 -17 440 31 b 496 0 475 63 496 6 z m 465 154 b 321 79 439 111 386 79 b 193 172 246 79 193 110 b 426 306 193 263 251 306 l 465 306 z m 449 818 b 333 932 449 883 399 932 b 218 818 269 932 218 882 b 333 704 218 756 271 704 b 449 818 397 704 449 754 z m 394 819 b 333 757 394 786 375 757 b 271 819 296 757 271 790 b 333 882 271 851 296 882 b 394 819 372 882 394 854 z "},"ç":{"ha":613,"x_min":0,"x_max":0,"o":"m 556 24 l 519 132 b 361 81 464 101 406 81 b 190 313 249 81 190 164 b 363 554 190 475 240 554 b 514 504 410 554 467 532 l 551 611 b 364 650 508 628 421 650 b 63 313 161 650 63 518 b 289 -10 63 143 139 18 l 268 -89 b 383 -137 367 -89 383 -106 b 313 -189 383 -175 346 -189 b 207 -179 285 -189 251 -185 l 185 -265 b 319 -276 225 -271 279 -276 b 482 -135 407 -276 482 -224 b 383 -40 482 -94 451 -40 l 389 -15 b 556 24 442 -10 515 6 z "},"é":{"ha":696,"x_min":0,"x_max":0,"o":"m 631 269 b 344 651 631 510 569 651 b 63 311 122 651 63 458 b 351 -17 63 135 153 -17 b 596 33 435 -17 521 -1 l 556 131 b 363 76 489 97 426 76 b 194 269 253 76 203 151 z m 510 363 l 193 363 b 346 556 200 501 271 556 b 510 363 447 556 506 499 z m 508 899 l 378 899 l 244 736 l 335 736 z "},"è":{"ha":696,"x_min":0,"x_max":0,"o":"m 631 269 b 344 651 631 510 569 651 b 63 311 122 651 63 458 b 351 -17 63 135 153 -17 b 596 33 435 -17 521 -1 l 556 131 b 363 76 489 97 426 76 b 194 269 253 76 203 151 z m 510 363 l 193 363 b 346 556 200 501 271 556 b 510 363 447 556 506 499 z m 435 736 l 301 899 l 171 899 l 343 736 z "},"ê":{"ha":696,"x_min":0,"x_max":0,"o":"m 631 269 b 344 651 631 510 569 651 b 63 311 122 651 63 458 b 351 -17 63 135 153 -17 b 596 33 435 -17 521 -1 l 556 131 b 363 76 489 97 426 76 b 194 269 253 76 203 151 z m 510 363 l 193 363 b 346 556 200 501 271 556 b 510 363 447 556 506 499 z m 529 740 l 401 899 l 307 899 l 176 740 l 271 740 l 354 835 l 433 740 z "},"ë":{"ha":696,"x_min":0,"x_max":0,"o":"m 631 269 b 344 651 631 510 569 651 b 63 311 122 651 63 458 b 351 -17 63 135 153 -17 b 596 33 435 -17 521 -1 l 556 131 b 363 76 489 97 426 76 b 194 269 253 76 203 151 z m 510 363 l 193 363 b 346 556 200 501 271 556 b 510 363 447 556 506 499 z m 524 756 l 524 871 l 407 871 l 407 756 z m 308 756 l 308 871 l 192 871 l 192 756 z "},"í":{"ha":317,"x_min":0,"x_max":0,"o":"m 290 899 l 160 899 l 26 736 l 117 736 z m 221 0 l 221 635 l 96 635 l 96 0 z "},"ì":{"ha":317,"x_min":0,"x_max":0,"o":"m 276 736 l 143 899 l 13 899 l 185 736 z m 221 0 l 221 635 l 96 635 l 96 0 z "},"î":{"ha":317,"x_min":0,"x_max":0,"o":"m 219 0 l 219 635 l 94 635 l 94 0 z m 342 740 l 214 899 l 119 899 l -11 740 l 83 740 l 167 835 l 246 740 z "},"ï":{"ha":317,"x_min":0,"x_max":0,"o":"m 324 782 l 324 897 l 207 897 l 207 782 z m 108 782 l 108 897 l -8 897 l -8 782 z m 221 0 l 221 635 l 96 635 l 96 0 z "},"ñ":{"ha":707,"x_min":0,"x_max":0,"o":"m 613 0 l 613 400 b 388 653 613 546 565 653 b 214 546 293 653 239 575 l 192 635 l 79 635 b 94 500 83 588 94 553 l 94 0 l 218 0 l 218 429 b 369 556 244 488 296 556 b 489 401 478 556 489 482 l 489 0 z m 558 833 l 489 865 b 419 806 479 842 456 806 b 288 863 378 806 342 863 b 147 765 217 863 181 840 l 218 732 b 286 789 226 760 247 789 b 422 731 329 789 360 731 b 558 833 486 731 539 772 z "},"ó":{"ha":718,"x_min":0,"x_max":0,"o":"m 656 321 b 360 653 656 504 581 653 b 63 321 140 653 63 496 b 360 -18 63 138 139 -18 b 656 321 579 -18 656 138 z m 528 321 b 360 79 528 167 481 79 b 190 321 235 79 190 174 b 360 556 190 476 243 556 b 528 321 483 556 528 476 z m 511 899 l 381 899 l 247 736 l 338 736 z "},"ò":{"ha":718,"x_min":0,"x_max":0,"o":"m 656 321 b 360 653 656 504 581 653 b 63 321 140 653 63 496 b 360 -18 63 138 139 -18 b 656 321 579 -18 656 138 z m 528 321 b 360 79 528 167 481 79 b 190 321 235 79 190 174 b 360 556 190 476 243 556 b 528 321 483 556 528 476 z m 465 736 l 332 899 l 201 899 l 374 736 z "},"ô":{"ha":718,"x_min":0,"x_max":0,"o":"m 656 321 b 360 653 656 504 581 653 b 63 321 140 653 63 496 b 360 -18 63 138 139 -18 b 656 321 579 -18 656 138 z m 528 321 b 360 79 528 167 481 79 b 190 321 235 79 190 174 b 360 556 190 476 243 556 b 528 321 483 556 528 476 z m 538 740 l 410 899 l 315 899 l 185 740 l 279 740 l 363 835 l 442 740 z "},"ö":{"ha":718,"x_min":0,"x_max":0,"o":"m 656 321 b 360 653 656 504 581 653 b 63 321 140 653 63 496 b 360 -18 63 138 139 -18 b 656 321 579 -18 656 138 z m 528 321 b 360 79 528 167 481 79 b 190 321 235 79 190 174 b 360 556 190 476 243 556 b 528 321 483 556 528 476 z m 525 756 l 525 871 l 408 871 l 408 756 z m 310 756 l 310 871 l 193 871 l 193 756 z "},"õ":{"ha":718,"x_min":0,"x_max":0,"o":"m 656 321 b 360 653 656 504 581 653 b 63 321 140 653 63 496 b 360 -18 63 138 139 -18 b 656 321 579 -18 656 138 z m 528 321 b 360 79 528 167 481 79 b 190 321 235 79 190 174 b 360 556 190 476 243 556 b 528 321 483 556 528 476 z m 553 833 l 481 865 b 414 806 474 842 450 806 b 282 863 372 806 336 863 b 142 765 211 863 175 840 l 213 732 b 281 789 221 760 242 789 b 417 731 324 789 354 731 b 553 833 481 731 533 772 z "},"ú":{"ha":697,"x_min":0,"x_max":0,"o":"m 618 0 b 603 135 614 47 603 82 l 603 635 l 479 635 l 479 206 b 333 79 453 147 407 79 b 218 233 229 79 218 154 l 218 635 l 94 635 l 94 235 b 315 -18 94 89 146 -18 b 483 89 410 -18 458 60 l 506 0 z m 499 899 l 368 899 l 235 736 l 325 736 z "},"ù":{"ha":697,"x_min":0,"x_max":0,"o":"m 447 736 l 314 899 l 183 899 l 356 736 z m 618 0 b 603 135 614 47 603 82 l 603 635 l 479 635 l 479 206 b 333 79 453 147 407 79 b 218 233 229 79 218 154 l 218 635 l 94 635 l 94 235 b 315 -18 94 89 146 -18 b 483 89 410 -18 458 60 l 506 0 z "},"û":{"ha":697,"x_min":0,"x_max":0,"o":"m 618 0 b 603 135 614 47 603 82 l 603 635 l 479 635 l 479 206 b 333 79 453 147 407 79 b 218 233 229 79 218 154 l 218 635 l 94 635 l 94 235 b 315 -18 94 89 146 -18 b 483 89 410 -18 458 60 l 506 0 z m 524 740 l 396 899 l 301 899 l 171 740 l 265 740 l 349 835 l 428 740 z "},"ü":{"ha":697,"x_min":0,"x_max":0,"o":"m 618 0 b 603 135 614 47 603 82 l 603 635 l 479 635 l 479 206 b 333 79 453 147 407 79 b 218 233 229 79 218 154 l 218 635 l 94 635 l 94 235 b 315 -18 94 89 146 -18 b 483 89 410 -18 458 60 l 506 0 z m 514 756 l 506 871 l 397 871 l 397 756 z m 299 756 l 299 871 l 182 871 l 182 756 z "},"†":{"ha":714,"x_min":0,"x_max":0,"o":"m 663 463 l 663 560 l 413 560 l 413 861 l 301 861 l 301 560 l 51 560 l 51 463 l 301 463 l 301 -250 l 413 -250 l 413 463 z "},"°":{"ha":569,"x_min":0,"x_max":0,"o":"m 506 636 b 285 854 506 761 404 854 b 65 636 165 854 65 761 b 283 422 65 511 164 422 b 506 636 403 422 506 511 z m 415 636 b 283 507 415 564 353 507 b 153 636 214 507 153 564 b 285 771 153 714 210 771 b 415 636 360 771 415 714 z "},"¢":{"ha":613,"x_min":0,"x_max":0,"o":"m 563 26 l 519 129 b 407 86 482 110 443 94 l 407 547 b 515 506 443 539 482 522 l 558 608 b 407 647 522 622 461 640 l 407 776 l 304 776 l 304 647 b 63 313 138 624 63 497 b 304 -12 63 138 140 10 l 304 -139 l 407 -139 l 407 -12 b 563 26 460 -6 526 8 z m 304 90 b 190 313 225 114 190 194 b 304 547 190 443 222 525 z "},"£":{"ha":714,"x_min":0,"x_max":0,"o":"m 682 0 l 682 111 l 304 111 l 304 438 l 529 438 l 529 536 l 304 536 l 304 563 b 594 817 304 799 450 803 l 557 933 b 165 558 371 907 165 858 l 165 536 l 64 536 l 64 438 l 165 438 l 165 111 l 74 111 l 74 0 z "},"§":{"ha":631,"x_min":0,"x_max":0,"o":"m 565 438 b 217 735 565 679 217 615 b 342 818 217 796 267 818 b 490 771 406 818 440 796 l 533 874 b 340 915 464 899 400 915 b 88 731 217 915 88 874 b 151 608 88 675 115 635 b 65 461 100 583 65 536 b 410 167 65 229 410 301 b 289 75 410 111 383 75 b 117 125 215 75 176 100 l 74 21 b 286 -22 135 -3 213 -22 b 539 168 414 -22 539 29 b 485 297 539 224 522 267 b 565 438 532 324 565 371 z m 438 436 b 381 356 438 400 424 374 b 193 464 293 386 193 401 b 265 554 193 514 218 543 b 438 436 356 525 438 508 z "},"•":{"ha":714,"x_min":0,"x_max":0,"o":"m 544 450 b 357 638 544 556 463 638 b 169 450 253 638 169 556 b 357 261 169 343 250 261 b 544 450 463 261 544 346 z "},"¶":{"ha":750,"x_min":0,"x_max":0,"o":"m 694 -261 l 694 899 l 344 899 b 83 646 119 899 83 742 b 319 394 83 542 142 415 l 319 -261 l 429 -261 l 429 474 b 293 636 367 490 293 550 b 444 800 293 746 360 800 l 583 800 l 583 -261 z "},"ß":{"ha":717,"x_min":0,"x_max":0,"o":"m 651 183 b 396 476 651 399 469 446 b 567 704 431 500 567 563 b 326 913 567 864 443 913 b 94 654 172 913 94 829 l 94 0 l 218 0 l 218 669 b 326 817 218 786 258 817 b 440 708 381 817 440 785 b 294 517 440 606 338 544 l 294 418 b 525 186 372 396 525 351 b 322 0 525 67 446 0 l 281 -107 b 651 183 457 -107 651 -43 z "},"®":{"ha":1000,"x_min":0,"x_max":0,"o":"m 965 450 b 500 914 965 714 764 914 b 35 450 240 914 35 711 b 500 -14 35 189 240 -14 b 965 450 760 -14 965 189 z m 883 450 b 500 60 883 238 713 60 b 117 450 288 60 117 238 b 500 840 117 665 282 840 b 883 450 717 840 883 664 z m 721 179 l 540 414 b 688 568 651 425 688 493 b 506 721 688 688 593 721 l 317 721 l 317 179 l 403 179 l 403 411 l 439 411 l 617 179 z m 600 568 b 511 478 600 517 576 478 l 403 478 l 403 651 l 510 651 b 600 568 572 651 600 621 z "},"©":{"ha":1000,"x_min":0,"x_max":0,"o":"m 965 450 b 500 914 965 714 764 914 b 35 450 240 914 35 711 b 500 -14 35 189 240 -14 b 965 450 760 -14 965 189 z m 883 450 b 500 60 883 238 713 60 b 117 450 288 60 117 238 b 500 840 117 665 282 840 b 883 450 717 840 883 664 z m 649 189 l 622 263 b 497 231 578 244 542 231 b 344 449 382 231 344 318 b 503 660 344 571 382 660 b 615 632 544 660 579 647 l 643 706 b 503 726 601 719 551 726 b 256 447 317 726 256 597 b 499 164 256 281 322 164 b 649 189 557 164 600 172 z "},"™":{"ha":1269,"x_min":0,"x_max":0,"o":"m 1139 404 l 1139 899 l 1011 899 l 853 511 l 696 899 l 561 899 l 561 404 l 642 404 l 642 815 l 810 404 l 889 404 l 1057 815 l 1057 404 z m 494 836 l 494 899 l 104 899 l 104 836 l 257 836 l 257 404 l 342 404 l 342 836 z "},"´":{"ha":317,"x_min":0,"x_max":0,"o":"m 290 899 l 160 899 l 26 736 l 117 736 z "},"¨":{"ha":317,"x_min":0,"x_max":0,"o":"m 324 783 l 324 899 l 207 899 l 207 783 z m 108 783 l 108 899 l -8 899 l -8 783 z "},"≠":{"ha":714,"x_min":0,"x_max":0,"o":"m 658 115 l 658 215 l 375 215 l 450 356 l 658 356 l 658 456 l 503 456 l 585 610 l 490 663 l 381 456 l 56 456 l 56 356 l 328 356 l 254 215 l 56 215 l 56 115 l 200 115 l 122 -32 l 217 -85 l 322 115 z "},"Æ":{"ha":1311,"x_min":0,"x_max":0,"o":"m 1196 0 l 1196 107 l 838 107 l 783 411 l 1154 411 l 1154 518 l 764 518 l 715 792 l 1183 792 l 1183 899 l 553 899 l 43 0 l 200 0 l 339 254 l 675 254 l 717 0 z m 660 358 l 394 358 l 599 736 z "},"Ø":{"ha":976,"x_min":0,"x_max":0,"o":"m 939 885 l 847 968 l 742 843 b 492 915 682 889 600 915 b 85 446 192 915 85 711 b 147 146 85 329 101 226 l 22 -1 l 113 -85 l 231 54 b 490 -25 292 4 376 -25 b 892 446 789 -25 892 179 b 825 751 892 567 872 671 z m 661 749 l 249 264 b 228 446 233 314 228 376 b 490 808 228 683 301 808 b 661 749 565 808 621 788 z m 749 446 b 490 82 749 219 685 82 b 311 147 410 82 351 104 l 725 633 b 749 446 742 582 749 519 z "},"∞":{"ha":1033,"x_min":0,"x_max":0,"o":"m 960 314 b 735 535 960 431 900 535 b 518 401 632 535 574 469 b 303 535 468 471 400 535 b 74 314 147 535 74 426 b 300 93 74 201 142 93 b 517 232 397 93 465 165 b 732 93 560 169 636 93 b 960 314 893 93 960 203 z m 838 314 b 732 189 838 242 796 189 b 579 317 668 189 618 260 b 735 439 621 372 674 439 b 838 314 800 439 838 383 z m 456 317 b 300 189 417 261 357 189 b 194 314 246 189 194 242 b 303 439 194 386 238 439 b 456 317 361 439 421 371 z "},"±":{"ha":714,"x_min":0,"x_max":0,"o":"m 653 336 l 653 435 l 413 435 l 413 594 l 301 594 l 301 435 l 61 435 l 61 336 l 301 336 l 301 167 l 413 167 l 413 336 z m 658 1 l 658 100 l 56 100 l 56 1 z "},"≤":{"ha":714,"x_min":0,"x_max":0,"o":"m 658 132 l 658 257 l 185 374 l 658 494 l 658 618 l 56 442 l 56 307 z m 658 1 l 658 100 l 56 100 l 56 1 z "},"≥":{"ha":714,"x_min":0,"x_max":0,"o":"m 658 307 l 658 442 l 56 618 l 56 494 l 528 374 l 56 257 l 56 132 z m 658 1 l 658 100 l 56 100 l 56 1 z "},"¥":{"ha":714,"x_min":0,"x_max":0,"o":"m 710 899 l 565 899 l 364 524 l 158 899 l 4 899 l 265 443 l 101 443 l 101 346 l 289 346 l 289 261 l 101 261 l 101 163 l 289 163 l 289 0 l 428 0 l 428 163 l 617 163 l 617 261 l 428 261 l 428 346 l 617 346 l 617 443 l 450 443 z "},"µ":{"ha":714,"x_min":0,"x_max":0,"o":"m 626 0 b 611 135 622 47 611 82 l 611 635 l 488 635 l 488 219 b 342 79 461 161 415 79 b 226 233 238 79 226 154 l 226 635 l 103 635 l 103 -250 l 226 -250 l 226 13 b 324 -18 249 -6 283 -18 b 492 89 418 -18 467 60 l 514 0 z "},"∂":{"ha":714,"x_min":0,"x_max":0,"o":"m 651 393 b 297 863 651 615 549 863 b 110 838 246 863 167 853 l 153 722 b 290 758 197 743 238 758 b 522 438 450 758 522 610 b 336 558 483 517 399 558 b 63 261 153 558 63 446 b 346 -22 63 99 186 -22 b 651 393 599 -22 651 188 z m 510 332 b 344 82 510 132 446 82 b 203 261 264 82 203 143 b 343 454 203 349 217 454 b 510 332 446 454 490 382 z "},"∑":{"ha":714,"x_min":0,"x_max":0,"o":"m 688 -250 l 688 -154 l 179 -154 l 560 365 l 200 879 l 672 879 l 672 975 l 60 975 l 60 893 l 429 365 l 42 -168 l 42 -250 z "},"∏":{"ha":714,"x_min":0,"x_max":0,"o":"m 686 -250 l 686 975 l 28 975 l 28 -250 l 139 -250 l 139 882 l 575 882 l 575 -250 z "},"π":{"ha":714,"x_min":0,"x_max":0,"o":"m 692 0 b 563 139 589 15 563 53 l 563 536 l 665 536 l 665 635 l 32 635 l 32 536 l 144 536 l 144 0 l 253 0 l 253 536 l 454 536 l 454 133 b 667 -90 454 -7 546 -67 z "},"∫":{"ha":714,"x_min":0,"x_max":0,"o":"m 547 922 l 519 1021 b 297 789 418 1003 297 957 l 297 19 b 165 -119 297 -65 264 -100 l 197 -218 b 415 14 299 -197 415 -143 l 415 783 b 547 922 415 868 443 904 z "},"ª":{"ha":714,"x_min":0,"x_max":0,"o":"m 526 543 b 513 650 521 583 513 622 l 513 790 b 368 901 513 867 449 901 b 206 875 310 901 253 892 l 231 813 b 365 842 267 829 313 842 b 431 781 418 842 431 818 l 431 763 l 397 763 b 189 635 235 763 189 706 b 333 533 189 567 247 533 b 436 582 379 533 415 560 b 450 543 436 578 450 546 z m 431 639 b 344 593 414 615 383 593 b 272 638 301 593 272 603 b 408 706 272 688 307 706 l 431 706 z "},"º":{"ha":714,"x_min":0,"x_max":0,"o":"m 539 733 b 358 915 539 835 492 915 b 176 733 226 915 176 831 b 358 547 176 632 226 547 b 539 733 490 547 539 633 z m 456 733 b 358 606 456 649 422 606 b 258 733 288 606 258 653 b 358 856 258 819 294 856 b 456 733 426 856 456 819 z "},"Ω":{"ha":982,"x_min":0,"x_max":0,"o":"m 893 500 b 490 915 893 758 744 915 b 89 497 238 915 89 760 b 314 131 89 343 153 179 l 314 92 l 118 92 l 118 0 l 431 0 l 431 188 b 233 500 279 208 233 328 b 492 808 233 746 367 808 b 747 501 625 808 747 738 b 551 188 747 332 704 214 l 551 0 l 863 0 l 863 92 l 668 92 l 668 131 b 893 500 832 181 893 343 z "},"æ":{"ha":1093,"x_min":0,"x_max":0,"o":"m 1028 269 b 740 651 1028 510 965 651 b 549 561 650 651 589 611 b 360 651 513 618 446 651 b 89 603 261 651 168 632 l 132 500 b 356 556 193 529 268 556 b 465 432 444 556 465 499 l 465 392 l 407 392 b 63 167 136 392 63 296 b 301 -17 63 43 157 -17 b 524 104 400 -17 469 33 b 747 -17 553 39 632 -17 b 992 33 831 -17 917 -1 l 951 131 b 758 76 885 97 822 76 b 590 269 649 76 599 151 z m 903 363 l 590 363 b 742 556 597 501 667 556 b 903 363 843 556 899 499 z m 467 169 b 321 79 440 126 386 79 b 193 172 246 79 193 110 b 426 300 193 263 251 300 l 467 300 z "},"ø":{"ha":718,"x_min":0,"x_max":0,"o":"m 697 597 l 613 679 l 539 599 b 360 653 496 632 438 653 b 63 321 140 653 63 496 b 103 125 63 249 75 181 l 21 36 l 104 -46 l 179 35 b 360 -18 224 1 283 -18 b 656 321 579 -18 656 138 b 618 511 656 392 644 457 z m 465 518 l 200 231 b 190 321 193 257 190 288 b 360 556 190 476 243 556 b 465 518 407 556 442 542 z m 528 321 b 360 79 528 167 481 79 b 254 117 314 79 279 93 l 521 406 b 528 321 526 381 528 351 z "},"¿":{"ha":604,"x_min":0,"x_max":0,"o":"m 429 764 l 429 899 l 290 899 l 290 764 z m 561 28 l 536 142 b 335 93 486 117 386 93 b 204 208 239 93 204 126 b 424 536 204 332 424 347 l 424 663 l 297 663 l 297 543 b 71 208 297 406 71 374 b 335 -14 71 15 213 -14 b 561 28 401 -14 501 7 z "},"¡":{"ha":357,"x_min":0,"x_max":0,"o":"m 249 764 l 249 899 l 110 899 l 110 764 z m 240 0 l 240 654 l 117 654 l 117 0 z "},"¬":{"ha":714,"x_min":0,"x_max":0,"o":"m 672 136 l 672 479 l 35 479 l 35 381 l 561 381 l 561 136 z "},"√":{"ha":714,"x_min":0,"x_max":0,"o":"m 707 1038 l 596 1038 l 361 -60 l 197 350 l 26 350 l 26 253 l 110 253 l 289 -176 l 451 -176 z "},"ƒ":{"ha":714,"x_min":0,"x_max":0,"o":"m 575 817 l 568 924 b 300 701 461 903 328 865 l 289 635 l 193 635 l 178 549 l 274 549 l 136 -250 l 249 -250 l 388 549 l 504 549 l 518 635 l 401 635 l 413 696 b 575 817 425 768 474 808 z "},"≈":{"ha":714,"x_min":0,"x_max":0,"o":"m 675 468 l 575 521 b 479 419 575 444 540 419 b 213 535 426 419 336 535 b 38 375 104 535 38 468 l 139 322 b 232 425 139 400 171 425 b 497 308 289 425 379 308 b 675 468 606 308 675 376 z m 675 204 l 575 257 b 479 156 575 181 540 156 b 213 271 426 156 336 271 b 38 111 104 271 38 204 l 139 58 b 232 161 139 136 171 161 b 497 44 289 161 379 44 b 675 204 606 44 675 113 z "},"Δ":{"ha":1033,"x_min":0,"x_max":0,"o":"m 958 0 l 571 899 l 463 899 l 75 0 z m 803 97 l 233 97 l 518 778 z "},"«":{"ha":538,"x_min":0,"x_max":0,"o":"m 501 628 l 383 628 l 254 375 l 383 128 l 500 128 l 367 378 z m 285 628 l 168 628 l 39 375 l 168 128 l 283 128 l 150 378 z "},"»":{"ha":538,"x_min":0,"x_max":0,"o":"m 500 375 l 371 628 l 253 628 l 388 378 l 254 128 l 371 128 z m 283 375 l 154 628 l 38 628 l 172 378 l 39 128 l 154 128 z "},"…":{"ha":1069,"x_min":0,"x_max":0,"o":"m 960 0 l 960 133 l 824 133 l 824 0 z m 604 0 l 604 133 l 467 133 l 467 0 z m 247 0 l 247 133 l 110 133 l 110 0 z "}," ":{"ha":357,"x_min":0,"x_max":0,"o":""},"À":{"ha":913,"x_min":0,"x_max":0,"o":"m 869 0 l 531 899 l 408 899 l 43 0 l 189 0 l 283 254 l 628 254 l 717 0 z m 593 358 l 322 358 l 463 738 z m 601 956 l 463 1118 l 338 1118 l 510 956 z "},"Ã":{"ha":913,"x_min":0,"x_max":0,"o":"m 869 0 l 531 899 l 408 899 l 43 0 l 189 0 l 283 254 l 628 254 l 717 0 z m 593 358 l 322 358 l 463 738 z m 676 1050 l 604 1082 b 538 1022 597 1058 574 1022 b 406 1079 496 1022 460 1079 b 265 982 335 1079 299 1057 l 336 949 b 404 1006 344 976 365 1006 b 540 947 447 1006 478 947 b 676 1050 604 947 657 989 z "},"Õ":{"ha":976,"x_min":0,"x_max":0,"o":"m 892 446 b 492 915 892 719 792 915 b 85 446 192 915 85 711 b 490 -25 85 178 179 -25 b 892 446 789 -25 892 179 z m 749 446 b 490 82 749 219 685 82 b 228 446 300 82 228 203 b 490 808 228 683 301 808 b 749 446 678 808 749 685 z m 699 1049 l 626 1081 b 560 1021 619 1057 596 1021 b 428 1078 518 1021 482 1078 b 288 981 357 1078 321 1056 l 358 947 b 426 1004 367 975 388 1004 b 563 946 469 1004 500 946 b 699 1049 626 946 679 988 z "},"Œ":{"ha":1356,"x_min":0,"x_max":0,"o":"m 1240 0 l 1240 107 l 788 107 b 876 411 847 181 874 293 l 1199 411 l 1199 518 l 875 518 b 786 792 868 625 844 726 l 1228 792 l 1228 899 l 626 899 b 492 915 586 910 543 915 b 85 446 192 915 85 711 b 490 -25 85 178 179 -25 b 649 0 553 -25 603 -17 z m 735 446 b 490 82 735 219 682 82 b 228 446 300 82 228 203 b 490 808 228 683 301 808 b 735 446 676 808 735 685 z "},"œ":{"ha":1156,"x_min":0,"x_max":0,"o":"m 1090 269 b 804 651 1090 510 1029 651 b 592 538 697 651 631 603 b 360 653 550 607 478 653 b 63 321 140 653 63 496 b 360 -18 63 138 139 -18 b 592 100 476 -18 549 29 b 811 -17 635 31 704 -17 b 1056 33 894 -17 981 -1 l 1015 131 b 822 76 949 97 886 76 b 654 269 713 76 663 151 z m 967 363 l 653 363 b 806 556 660 501 731 556 b 967 363 907 556 963 499 z m 528 321 b 360 79 528 167 481 79 b 190 321 235 79 190 174 b 360 556 190 476 243 556 b 528 321 483 556 528 476 z "},"–":{"ha":694,"x_min":0,"x_max":0,"o":"m 696 282 l 696 382 l -1 382 l -1 282 z "},"—":{"ha":1389,"x_min":0,"x_max":0,"o":"m 1390 274 l 1390 382 l -1 382 l -1 274 z "},"“":{"ha":538,"x_min":0,"x_max":0,"o":"m 482 900 l 393 900 l 257 639 l 364 639 z m 281 900 l 193 900 l 56 639 l 163 639 z "},"”":{"ha":538,"x_min":0,"x_max":0,"o":"m 482 900 l 374 900 l 256 639 l 344 639 z m 281 900 l 174 900 l 56 639 l 144 639 z "},"‘":{"ha":357,"x_min":0,"x_max":0,"o":"m 288 900 l 200 900 l 63 639 l 169 639 z "},"’":{"ha":357,"x_min":0,"x_max":0,"o":"m 289 900 l 182 900 l 65 639 l 154 639 z "},"÷":{"ha":714,"x_min":0,"x_max":0,"o":"m 426 467 l 426 600 l 289 600 l 289 467 z m 658 260 l 658 350 l 56 350 l 56 260 z m 426 17 l 426 150 l 289 150 l 289 17 z "},"◊":{"ha":714,"x_min":0,"x_max":0,"o":"m 647 435 l 414 918 l 297 918 l 67 435 l 297 -51 l 413 -51 z m 539 435 l 356 36 l 174 435 l 356 833 z "},"ÿ":{"ha":706,"x_min":0,"x_max":0,"o":"m 653 635 l 525 635 l 368 169 l 186 635 l 53 635 l 307 26 l 251 -121 b 129 -211 238 -158 206 -190 l 169 -315 b 388 -101 294 -271 350 -206 z m 532 760 l 532 875 l 415 875 l 415 760 z m 317 760 l 317 875 l 200 875 l 200 760 z "},"Ÿ":{"ha":819,"x_min":0,"x_max":0,"o":"m 799 899 l 651 899 l 418 524 l 178 899 l 21 899 l 343 399 l 343 0 l 482 0 l 482 404 z m 585 997 l 585 1114 l 471 1114 l 471 997 z m 374 997 l 374 1114 l 258 1114 l 258 997 z "},"⁄":{"ha":269,"x_min":0,"x_max":0,"o":"m 442 874 l 329 874 l -174 0 l -62 0 z "},"¤":{"ha":714,"x_min":0,"x_max":0,"o":"m 746 879 b 517 915 678 901 592 915 b 147 601 283 915 181 781 l 32 601 l -1 494 l 133 494 b 132 479 133 489 132 485 b 133 449 132 469 133 458 l 133 415 l 32 415 l -1 308 l 143 308 b 510 -25 174 107 279 -25 b 715 8 604 -25 657 -11 l 715 140 b 508 82 643 111 581 82 b 286 308 367 82 307 171 l 574 308 l 607 415 l 276 415 l 276 494 l 629 494 l 663 601 l 290 601 b 517 808 315 725 375 808 b 710 763 588 808 654 788 z "},"‹":{"ha":357,"x_min":0,"x_max":0,"o":"m 304 628 l 188 628 l 58 375 l 188 128 l 303 128 l 169 378 z "},"›":{"ha":357,"x_min":0,"x_max":0,"o":"m 308 375 l 179 628 l 63 628 l 197 378 l 64 128 l 179 128 z "},"ﬁ":{"ha":686,"x_min":0,"x_max":0,"o":"m 594 776 l 594 899 l 463 899 l 463 776 z m 590 0 l 590 635 l 467 635 l 467 0 z m 394 819 l 353 924 b 114 678 253 904 114 849 l 114 635 l 18 635 l 18 539 l 114 539 l 114 0 l 238 0 l 238 539 l 354 539 l 354 635 l 238 635 l 238 688 b 394 819 238 772 292 801 z "},"ﬂ":{"ha":686,"x_min":0,"x_max":0,"o":"m 593 0 l 593 913 l 469 913 l 469 0 z m 394 819 l 353 924 b 114 678 253 904 114 849 l 114 635 l 18 635 l 18 539 l 114 539 l 114 0 l 238 0 l 238 539 l 354 539 l 354 635 l 238 635 l 238 688 b 394 819 238 772 292 801 z "},"‡":{"ha":714,"x_min":0,"x_max":0,"o":"m 663 222 l 663 321 l 413 321 l 413 583 l 663 583 l 663 681 l 413 681 l 413 899 l 301 899 l 301 681 l 51 681 l 51 583 l 301 583 l 301 321 l 51 321 l 51 222 l 301 222 l 301 0 l 413 0 l 413 222 z "},"·":{"ha":357,"x_min":0,"x_max":0,"o":"m 246 317 l 246 454 l 111 454 l 111 317 z "},"‚":{"ha":357,"x_min":0,"x_max":0,"o":"m 289 139 l 182 139 l 65 -122 l 154 -122 z "},"„":{"ha":538,"x_min":0,"x_max":0,"o":"m 482 139 l 374 139 l 256 -122 l 344 -122 z m 281 139 l 174 139 l 56 -122 l 144 -122 z "},"‰":{"ha":1533,"x_min":0,"x_max":0,"o":"m 1467 231 b 1278 469 1467 367 1431 469 b 1090 231 1136 469 1090 364 b 1276 -17 1090 94 1124 -17 b 1467 231 1431 -17 1467 94 z m 1003 231 b 815 469 1003 367 968 469 b 628 231 674 469 628 364 b 814 -17 628 94 661 -17 b 1003 231 968 -17 1003 94 z m 835 874 l 722 874 l 219 0 l 331 0 z m 443 676 b 254 915 443 813 407 915 b 67 676 113 915 67 810 b 253 429 67 540 100 429 b 443 676 407 429 443 540 z m 1376 231 b 1276 49 1376 128 1364 49 b 1182 231 1190 49 1182 125 b 1278 404 1182 318 1193 404 b 1376 231 1365 404 1376 335 z m 914 231 b 814 49 914 128 901 49 b 718 231 728 49 718 125 b 815 404 718 318 731 404 b 914 231 903 404 914 335 z m 353 676 b 253 494 353 574 340 494 b 158 676 167 494 158 571 b 254 850 158 764 169 850 b 353 676 342 850 353 781 z "},"Â":{"ha":913,"x_min":0,"x_max":0,"o":"m 869 0 l 531 899 l 408 899 l 43 0 l 189 0 l 283 254 l 628 254 l 717 0 z m 593 358 l 322 358 l 463 738 z m 642 967 l 514 1125 l 419 1125 l 289 967 l 383 967 l 467 1061 l 546 967 z "},"Ê":{"ha":776,"x_min":0,"x_max":0,"o":"m 661 0 l 661 107 l 272 107 l 272 411 l 619 411 l 619 518 l 272 518 l 272 792 l 649 792 l 649 899 l 133 899 l 133 0 z m 568 958 l 440 1117 l 346 1117 l 215 958 l 310 958 l 393 1053 l 472 958 z "},"Á":{"ha":913,"x_min":0,"x_max":0,"o":"m 869 0 l 531 899 l 408 899 l 43 0 l 189 0 l 283 254 l 628 254 l 717 0 z m 593 358 l 322 358 l 463 738 z m 601 1117 l 471 1117 l 338 954 l 428 954 z "},"Ë":{"ha":776,"x_min":0,"x_max":0,"o":"m 661 0 l 661 107 l 272 107 l 272 411 l 619 411 l 619 518 l 272 518 l 272 792 l 649 792 l 649 899 l 133 899 l 133 0 z m 567 949 l 567 1064 l 450 1064 l 450 949 z m 351 949 l 351 1064 l 235 1064 l 235 949 z "},"È":{"ha":776,"x_min":0,"x_max":0,"o":"m 661 0 l 661 107 l 272 107 l 272 411 l 619 411 l 619 518 l 272 518 l 272 792 l 649 792 l 649 899 l 133 899 l 133 0 z m 506 956 l 372 1118 l 242 1118 l 414 956 z "},"Í":{"ha":374,"x_min":0,"x_max":0,"o":"m 257 0 l 257 899 l 118 899 l 118 0 z m 325 1124 l 194 1124 l 61 961 l 151 961 z "},"Î":{"ha":374,"x_min":0,"x_max":0,"o":"m 256 0 l 256 899 l 117 899 l 117 0 z m 363 961 l 235 1119 l 140 1119 l 10 961 l 104 961 l 188 1056 l 267 961 z "},"Ï":{"ha":372,"x_min":0,"x_max":0,"o":"m 256 0 l 256 899 l 117 899 l 117 0 z m 353 985 l 353 1100 l 236 1100 l 236 985 z m 138 985 l 138 1100 l 21 1100 l 21 985 z "},"Ì":{"ha":372,"x_min":0,"x_max":0,"o":"m 256 0 l 256 899 l 117 899 l 117 0 z m 294 961 l 161 1124 l 31 1124 l 203 961 z "},"Ó":{"ha":976,"x_min":0,"x_max":0,"o":"m 892 446 b 492 915 892 719 792 915 b 85 446 192 915 85 711 b 490 -25 85 178 179 -25 b 892 446 789 -25 892 179 z m 749 446 b 490 82 749 219 685 82 b 228 446 300 82 228 203 b 490 808 228 683 301 808 b 749 446 678 808 749 685 z m 643 1117 l 513 1117 l 379 954 l 469 954 z "},"Ô":{"ha":976,"x_min":0,"x_max":0,"o":"m 892 446 b 492 915 892 719 792 915 b 85 446 192 915 85 711 b 490 -25 85 178 179 -25 b 892 446 789 -25 892 179 z m 749 446 b 490 82 749 219 685 82 b 228 446 300 82 228 203 b 490 808 228 683 301 808 b 749 446 678 808 749 685 z m 664 958 l 536 1117 l 442 1117 l 311 958 l 406 958 l 489 1053 l 568 958 z "},"Ò":{"ha":976,"x_min":0,"x_max":0,"o":"m 892 446 b 492 915 892 719 792 915 b 85 446 192 915 85 711 b 490 -25 85 178 179 -25 b 892 446 789 -25 892 179 z m 749 446 b 490 82 749 219 685 82 b 228 446 300 82 228 203 b 490 808 228 683 301 808 b 749 446 678 808 749 685 z m 574 956 l 440 1118 l 310 1118 l 482 956 z "},"Ú":{"ha":974,"x_min":0,"x_max":0,"o":"m 840 329 l 840 899 l 701 899 l 701 346 b 496 82 701 150 628 82 b 272 346 357 82 272 131 l 272 899 l 133 899 l 133 332 b 496 -25 133 92 244 -25 b 840 329 722 -25 840 90 z m 647 1104 l 517 1104 l 383 942 l 474 942 z "},"Û":{"ha":974,"x_min":0,"x_max":0,"o":"m 840 329 l 840 899 l 701 899 l 701 346 b 496 82 701 150 628 82 b 272 346 357 82 272 131 l 272 899 l 133 899 l 133 332 b 496 -25 133 92 244 -25 b 840 329 722 -25 840 90 z m 663 958 l 535 1117 l 440 1117 l 310 958 l 404 958 l 488 1053 l 567 958 z "},"Ù":{"ha":974,"x_min":0,"x_max":0,"o":"m 840 329 l 840 899 l 701 899 l 701 346 b 496 82 701 150 628 82 b 272 346 357 82 272 131 l 272 899 l 133 899 l 133 332 b 496 -25 133 92 244 -25 b 840 329 722 -25 840 90 z m 579 956 l 446 1118 l 315 1118 l 488 956 z "},"ı":{"ha":317,"x_min":0,"x_max":0,"o":"m 221 0 l 221 635 l 96 635 l 96 0 z "},"ˆ":{"ha":317,"x_min":0,"x_max":0,"o":"m 335 740 l 207 899 l 113 899 l -18 740 l 76 740 l 160 835 l 239 740 z "},"˜":{"ha":317,"x_min":0,"x_max":0,"o":"m 364 833 l 292 865 b 225 806 285 842 261 806 b 93 863 183 806 147 863 b -47 765 22 863 -14 840 l 24 732 b 92 789 32 760 53 789 b 228 731 135 789 165 731 b 364 833 292 731 344 772 z "},"¯":{"ha":317,"x_min":0,"x_max":0,"o":"m 329 771 l 329 869 l -12 869 l -12 771 z "},"˘":{"ha":317,"x_min":0,"x_max":0,"o":"m 363 831 l 290 872 b 163 781 276 831 225 781 b 26 872 89 781 38 831 l -47 831 b 163 694 -26 767 49 694 b 363 831 253 694 336 764 z "},"˙":{"ha":317,"x_min":0,"x_max":0,"o":"m 225 776 l 225 899 l 92 899 l 92 776 z "},"˚":{"ha":317,"x_min":0,"x_max":0,"o":"m 246 818 b 131 932 246 883 196 932 b 15 818 67 932 15 882 b 131 704 15 756 68 704 b 246 818 194 704 246 754 z m 192 819 b 131 757 192 786 172 757 b 68 819 93 757 68 790 b 131 882 68 851 93 882 b 192 819 169 882 192 854 z "},"¸":{"ha":317,"x_min":0,"x_max":0,"o":"m 301 -135 b 203 -37 301 -93 271 -37 l 217 21 l 115 21 l 86 -89 b 197 -137 185 -89 197 -106 b 131 -186 197 -175 164 -186 b 31 -175 103 -186 75 -181 l 3 -265 b 138 -276 43 -271 97 -276 b 301 -135 225 -276 301 -228 z "},"˝":{"ha":317,"x_min":0,"x_max":0,"o":"m 422 897 l 292 897 l 158 735 l 250 735 z m 226 897 l 97 897 l -36 735 l 54 735 z "},"˛":{"ha":317,"x_min":0,"x_max":0,"o":"m 307 -260 l 268 -167 b 192 -182 247 -171 224 -182 b 126 -129 158 -182 126 -167 b 294 22 126 -74 221 -11 l 144 22 b 19 -137 111 7 19 -46 b 182 -275 19 -222 72 -275 b 307 -260 214 -275 264 -271 z "},"ˇ":{"ha":317,"x_min":0,"x_max":0,"o":"m 335 899 l 239 899 l 156 806 l 76 899 l -18 899 l 108 740 l 203 740 z "},"Ð":{"ha":904,"x_min":0,"x_max":0,"o":"m 819 453 b 390 899 819 779 690 899 l 133 899 l 133 554 l 40 554 l 40 457 l 133 457 l 133 0 l 390 0 b 819 453 690 0 819 125 z m 676 451 b 403 107 676 190 578 107 l 272 107 l 272 457 l 446 457 l 446 554 l 272 554 l 272 792 l 390 792 b 676 451 575 792 676 733 z "},"þ":{"ha":710,"x_min":0,"x_max":0,"o":"m 647 321 b 389 651 647 497 578 651 b 218 546 308 651 251 594 l 218 913 l 94 913 l 94 194 b 79 -247 94 114 89 -171 l 192 -247 l 214 69 b 371 -17 239 32 293 -17 b 647 321 560 -17 647 139 z m 519 318 b 354 79 519 150 456 79 b 215 172 294 79 242 114 l 215 426 b 372 556 242 476 286 556 b 519 318 456 556 519 500 z "},"Þ":{"ha":803,"x_min":0,"x_max":0,"o":"m 731 465 b 421 728 731 663 604 728 l 272 728 l 272 899 l 133 899 l 133 0 l 272 0 l 272 194 l 436 194 b 731 465 617 194 731 271 z m 589 465 b 425 301 589 338 524 301 l 272 301 l 272 621 l 418 621 b 589 465 514 621 589 599 z "}}}
